<svg width="21" height="21" viewBox="0 0 21 21" fill="none" xmlns="http://www.w3.org/2000/svg">
<path d="M10.4411 0.919596C5.10922 1.01268 0.70131 4.73893 0.50663 9.85853C0.314855 14.981 4.30726 19.292 9.42416 19.484C12.0276 19.5829 14.4219 18.5968 16.174 16.9271C17.8593 15.3185 17.7896 12.4881 16.4501 13.771C14.9769 15.1818 12.9168 16.0253 10.6707 15.9439C6.38772 15.7897 3.04619 12.3282 3.206 8.21212C3.35419 4.39278 7.13739 1.37047 10.5225 1.18721L10.6097 0.916687C10.5545 0.919596 10.4993 0.919596 10.4411 0.919596Z" fill="url(#paint0_linear_1354_3779)"/>
<path d="M11.5346 1.18088C15.9112 1.43651 19.5135 5.0181 6.77686 8.5997C10.0216 9.2132 12.4182 10.6759 12.4182 10.6759C23.3227 5.34758 17.1199 0.899694 10.9495 0.916736L10.8609 1.18088C11.0884 1.16668 11.313 1.16668 11.5346 1.18088Z" fill="#FFCB05"/>
<path d="M5.77425 3.20282C7.17814 2.02938 8.92089 1.28762 10.5759 1.19642C10.8089 1.18426 11.0388 1.18426 11.2657 1.19946C13.4623 1.33322 15.4683 2.32122 15.4078 3.75002L16.5061 2.45194C15.0387 1.4761 12.8512 0.910656 10.6667 0.916736H10.4912C8.43377 0.953216 6.50948 1.50954 4.8938 2.47018L5.77425 3.20282Z" fill="url(#paint1_linear_1354_3779)"/>
<path d="M16.3813 15.3983C16.3783 15.3473 16.1992 14.0956 16.1992 14.0956C15.7545 11.121 16.3753 8.23947 20.8999 8.00234C14.3368 4.82963 9.97335 7.86727 6.77686 8.57865C9.68683 8.94184 15.8202 12.2496 16.3813 15.3983Z" fill="url(#paint2_linear_1354_3779)"/>
<path d="M17.9978 9.10187C15.211 10.2368 15.4965 13.3801 15.7642 15.2237C15.8177 15.3736 16.0973 16.5204 15.4519 17.7171C14.6519 19.0638 13.3552 20.0811 10.8569 20.7398C17.2602 21.0338 24.5884 14.9532 17.9978 9.10187Z" fill="url(#paint3_linear_1354_3779)"/>
<defs>
<linearGradient id="paint0_linear_1354_3779" x1="5.95374" y1="9.16424" x2="14.3085" y2="11.1919" gradientUnits="userSpaceOnUse">
<stop stop-color="#ED1C24"/>
<stop offset="1" stop-color="#8B0304"/>
</linearGradient>
<linearGradient id="paint1_linear_1354_3779" x1="6.09237" y1="2.33203" x2="15.1882" y2="2.33203" gradientUnits="userSpaceOnUse">
<stop stop-color="#ED1C24"/>
<stop offset="1" stop-color="#FFCB05"/>
</linearGradient>
<linearGradient id="paint2_linear_1354_3779" x1="13.8387" y1="6.51421" x2="13.8387" y2="9.72673" gradientUnits="userSpaceOnUse">
<stop stop-color="#E39717"/>
<stop offset="0.1236" stop-color="#E8A116"/>
<stop offset="0.4344" stop-color="#F4B710"/>
<stop offset="0.7321" stop-color="#FCC509"/>
<stop offset="1" stop-color="#FFCB05"/>
</linearGradient>
<linearGradient id="paint3_linear_1354_3779" x1="14.1633" y1="11.9402" x2="15.9845" y2="15.8936" gradientUnits="userSpaceOnUse">
<stop stop-color="#E39717"/>
<stop offset="0.1013" stop-color="#E8A116"/>
<stop offset="0.3561" stop-color="#F4B710"/>
<stop offset="0.6" stop-color="#FCC509"/>
<stop offset="0.8196" stop-color="#FFCB05"/>
<stop offset="1" stop-color="#FFCB05"/>
</linearGradient>
</defs>
</svg>
