<svg width="25" height="19" viewBox="0 0 25 19" fill="none" xmlns="http://www.w3.org/2000/svg">
<path fill-rule="evenodd" clip-rule="evenodd" d="M18.8864 2.64965C15.0331 5.09242 13.1446 10.1904 13.1446 10.1904C10.662 6.40514 4.91587 7.28453 4.91587 7.28453C13.7642 8.69072 13.1149 15.8109 13.1149 15.8109C13.8618 11.8897 16.6585 7.24205 17.3375 6.31168C20.9362 1.48137 24.8999 0.716675 24.8999 0.716675C23.2747 1.45929 21.7823 2.46392 20.4821 3.69048C20.9214 4.10683 21.2823 4.59899 21.5473 5.1434C23.4231 8.8734 20.9065 14.0648 14.9694 17.1193C9.72409 19.8297 3.38811 19.1713 1.51659 15.42C-0.354921 11.6688 2.10224 6.71951 7.95019 3.56728C11.7696 1.51535 16.0516 1.28595 18.8864 2.64965ZM11.0906 11.6518C11.0906 11.6518 5.72644 10.7341 5.71795 12.8201C5.71795 13.708 6.56671 14.821 9.48644 15.2798C9.98721 15.3605 11.7441 15.5984 12.8815 14.855C12.8815 14.855 12.2067 16.3546 8.92201 16.104C8.35335 16.0743 4.9965 15.8024 3.82946 13.521C3.51542 12.9008 3.48147 11.176 5.95136 10.7681C7.26269 10.5472 9.74107 10.6832 11.0694 11.6603" fill="white"/>
</svg>
