<svg width="19" height="15" viewBox="0 0 19 15" fill="none" xmlns="http://www.w3.org/2000/svg">
<g clip-path="url(#clip0_5_1888)">
<mask id="mask0_5_1888" style="mask-type:alpha" maskUnits="userSpaceOnUse" x="0" y="0" width="19" height="15">
<path d="M16.7202 0.776659C17.5362 0.776659 18.1382 1.52037 17.9776 2.30393C17.2018 5.94282 16.4259 9.58172 15.6501 13.2073C15.5297 13.7917 15.008 14.2167 14.3927 14.2167C11.6415 14.2167 8.89038 14.2167 6.13924 14.2167C5.56098 14.2167 5.09221 13.7479 5.09221 13.1696C5.09221 13.0952 5.10014 13.0211 5.11586 12.9484C5.23547 12.3952 5.78088 12.0437 6.33408 12.1633C6.39519 12.1765 6.45496 12.1953 6.51263 12.2194C7.26244 12.5327 7.89597 12.6894 8.41324 12.6894C10.1522 12.6894 11.7307 12.0121 13.1352 10.6574C13.6837 10.1395 14.1251 9.58172 14.4595 9.01065C14.6067 8.75832 14.4194 8.43958 14.1251 8.43958C13.5633 8.43958 13.0149 8.43958 12.453 8.43958C12.3326 8.43958 12.2122 8.49271 12.1454 8.59895C12.0383 8.74504 11.9046 8.90441 11.7708 9.05049C10.9414 9.91373 9.9917 10.3387 8.8948 10.3387C8.18583 10.3387 7.59725 10.1395 7.12906 9.74109C6.79464 9.44891 6.56724 9.10362 6.43347 8.7052C6.37996 8.54583 6.23282 8.43958 6.0723 8.43958C5.39008 8.43958 4.70786 8.43958 4.02565 8.43958C3.83837 8.43958 3.69123 8.55911 3.6511 8.74504C3.40419 9.90309 3.03535 11.618 2.54457 13.8898C2.50337 14.0805 2.33467 14.2167 2.13952 14.2167C1.32354 14.2167 0.721582 13.4729 0.882104 12.6894C1.65796 9.05049 2.43381 5.4116 3.20966 1.78599C3.33006 1.20164 3.85175 0.776659 4.46708 0.776659C4.86074 0.776659 5.17985 1.09578 5.17985 1.48943C5.17985 1.5399 5.17449 1.59023 5.16386 1.63957C4.74812 3.56897 4.43114 5.05209 4.21292 6.08891C4.15942 6.32796 4.34669 6.55373 4.58747 6.55373C5.16268 6.55373 5.73788 6.55373 6.2997 6.55373C6.44685 6.55373 6.58062 6.47405 6.6475 6.34124C6.8214 5.96939 7.06218 5.62409 7.38322 5.30535C8.19921 4.44211 9.14896 4.00385 10.2191 4.00385C10.9414 4.00385 11.5434 4.20306 12.0116 4.60148C12.4932 5.01318 12.7741 5.55769 12.8276 6.20844C12.841 6.40765 13.0149 6.55373 13.2155 6.55373C13.7773 6.55373 14.3258 6.55373 14.8876 6.55373C15.1016 6.55373 15.2622 6.39437 15.2755 6.18188C15.2755 6.14203 15.2755 6.08891 15.2755 6.04907C15.2755 4.77413 14.8475 3.71168 13.9914 2.88828C13.1352 2.06488 12.0517 1.65318 10.7408 1.65318C10.1521 1.64614 9.31793 1.86034 8.23837 2.29579C7.98264 2.39891 7.69171 2.27522 7.58857 2.0195C7.55103 1.92645 7.54241 1.82425 7.56381 1.72622C7.68485 1.17187 8.17567 0.776659 8.74309 0.776659C11.4021 0.776659 14.0612 0.776659 16.7202 0.776659Z" fill="white"/>
</mask>
<g mask="url(#mask0_5_1888)">
<path d="M16.7202 0.776659C17.5362 0.776659 18.1382 1.52037 17.9776 2.30393C17.2018 5.94282 16.4259 9.58172 15.6501 13.2073C15.5297 13.7917 15.008 14.2167 14.3927 14.2167C11.6415 14.2167 8.89038 14.2167 6.13924 14.2167C5.56098 14.2167 5.09221 13.7479 5.09221 13.1696C5.09221 13.0952 5.10014 13.0211 5.11586 12.9484C5.23547 12.3952 5.78088 12.0437 6.33408 12.1633C6.39519 12.1765 6.45496 12.1953 6.51263 12.2194C7.26244 12.5327 7.89597 12.6894 8.41324 12.6894C10.1522 12.6894 11.7307 12.0121 13.1352 10.6574C13.6837 10.1395 14.1251 9.58172 14.4595 9.01065C14.6067 8.75832 14.4194 8.43958 14.1251 8.43958C13.5633 8.43958 13.0149 8.43958 12.453 8.43958C12.3326 8.43958 12.2122 8.49271 12.1454 8.59895C12.0383 8.74504 11.9046 8.90441 11.7708 9.05049C10.9414 9.91373 9.9917 10.3387 8.8948 10.3387C8.18583 10.3387 7.59725 10.1395 7.12906 9.74109C6.79464 9.44891 6.56724 9.10362 6.43347 8.7052C6.37996 8.54583 6.23282 8.43958 6.0723 8.43958C5.39008 8.43958 4.70786 8.43958 4.02565 8.43958C3.83837 8.43958 3.69123 8.55911 3.6511 8.74504C3.40419 9.90309 3.03535 11.618 2.54457 13.8898C2.50337 14.0805 2.33467 14.2167 2.13952 14.2167C1.32354 14.2167 0.721582 13.4729 0.882104 12.6894C1.65796 9.05049 2.43381 5.4116 3.20966 1.78599C3.33006 1.20164 3.85175 0.776659 4.46708 0.776659C4.86074 0.776659 5.17985 1.09578 5.17985 1.48943C5.17985 1.5399 5.17449 1.59023 5.16386 1.63957C4.74812 3.56897 4.43114 5.05209 4.21292 6.08891C4.15942 6.32796 4.34669 6.55373 4.58747 6.55373C5.16268 6.55373 5.73788 6.55373 6.2997 6.55373C6.44685 6.55373 6.58062 6.47405 6.6475 6.34124C6.8214 5.96939 7.06218 5.62409 7.38322 5.30535C8.19921 4.44211 9.14896 4.00385 10.2191 4.00385C10.9414 4.00385 11.5434 4.20306 12.0116 4.60148C12.4932 5.01318 12.7741 5.55769 12.8276 6.20844C12.841 6.40765 13.0149 6.55373 13.2155 6.55373C13.7773 6.55373 14.3258 6.55373 14.8876 6.55373C15.1016 6.55373 15.2622 6.39437 15.2755 6.18188C15.2755 6.14203 15.2755 6.08891 15.2755 6.04907C15.2755 4.77413 14.8475 3.71168 13.9914 2.88828C13.1352 2.06488 12.0517 1.65318 10.7408 1.65318C10.1521 1.64614 9.31793 1.86034 8.23837 2.29579C7.98264 2.39891 7.69171 2.27522 7.58857 2.0195C7.55103 1.92645 7.54241 1.82425 7.56381 1.72622C7.68485 1.17187 8.17567 0.776659 8.74309 0.776659C11.4021 0.776659 14.0612 0.776659 16.7202 0.776659Z" fill="white"/>
</g>
</g>
<defs>
<clipPath id="clip0_5_1888">
<rect width="17.6" height="13.6" fill="white" transform="translate(0.600098 0.61665)"/>
</clipPath>
</defs>
</svg>
