<svg width="40" height="40" viewBox="0 0 40 40" fill="none" xmlns="http://www.w3.org/2000/svg">
<rect width="40" height="40" rx="20" fill="#C5ECBF"/>
<path fill-rule="evenodd" clip-rule="evenodd" d="M20 10.25C15.625 10.25 11.25 13.5312 11.25 17C11.25 17.4142 11.5858 17.75 12 17.75H19.25V22.25H12.5C11.2578 22.25 10.25 23.2578 10.25 24.5C10.25 25.7422 11.2578 26.75 12.5 26.75H14.0207L13.295 28.7435L13.2667 28.8414C13.1881 29.2024 13.3865 29.5749 13.7433 29.7048C14.1325 29.8464 14.5629 29.6458 14.7046 29.2565L15.6169 26.75H23.3831L24.2954 29.2565L24.3367 29.3498C24.5086 29.6768 24.8999 29.8346 25.2567 29.7048C25.646 29.5631 25.8466 29.1327 25.705 28.7435L24.923 26.5953C25.6872 26.4143 26.4113 26.0774 27.0484 25.6004L28.8503 24.2478C29.6241 23.6689 29.9407 22.6563 29.6345 21.7378C29.1503 20.2806 27.379 19.7276 26.1501 20.6489L24.3481 21.9999C24.1316 22.162 23.8681 22.25 23.599 22.25H20.75V17.75H28C28.4142 17.75 28.75 17.4142 28.75 17C28.75 13.5312 24.375 10.25 20 10.25ZM15.1093 25.25H23.599C24.5174 25.25 25.4119 24.9518 26.1487 24.4002L27.9507 23.0474C28.2079 22.8551 28.3133 22.5177 28.2113 22.2115C28.05 21.7262 27.4597 21.5419 27.0499 21.8491L25.2474 23.2004C24.7714 23.5567 24.1927 23.75 23.599 23.75H20H12.5C12.0862 23.75 11.75 24.0862 11.75 24.5C11.75 24.9138 12.0862 25.25 12.5 25.25H15.0744C15.086 25.2497 15.0976 25.2497 15.1093 25.25ZM20 16.25H22.2275C22.0622 13.6971 21.0143 11.8002 20 11.8002C18.9857 11.8002 17.9378 13.6971 17.7725 16.25H20ZM27.146 16.25H23.7306C23.6434 14.6906 23.267 13.277 22.6765 12.2194C24.8413 12.9737 26.6357 14.536 27.1207 16.1533L27.146 16.25ZM17.3235 12.2194C16.733 13.277 16.3566 14.6906 16.2694 16.25H12.853L12.8793 16.1533C13.3643 14.536 15.1587 12.9737 17.3235 12.2194Z" fill="#00B800"/>
</svg>
