<svg width="45" height="45" viewBox="0 0 45 45" fill="none" xmlns="http://www.w3.org/2000/svg">
<path d="M0 22.5C0 10.0736 10.0736 0 22.5 0V0C34.9264 0 45 10.0736 45 22.5V22.5C45 34.9264 34.9264 45 22.5 45V45C10.0736 45 0 34.9264 0 22.5V22.5Z" fill="#00B800"/>
<g clip-path="url(#clip0_420_7680)">
<mask id="mask0_420_7680" style="mask-type:alpha" maskUnits="userSpaceOnUse" x="12" y="14" width="22" height="17">
<path d="M32.1502 14.2C33.1702 14.2 33.9227 15.1296 33.722 16.109C32.7522 20.6577 31.7824 25.2063 30.8126 29.7383C30.6621 30.4687 30.01 31 29.2408 31C25.8019 31 22.3629 31 18.924 31C18.2012 31 17.6152 30.414 17.6152 29.6912C17.6152 29.5982 17.6251 29.5055 17.6448 29.4146C17.7943 28.7231 18.4761 28.2837 19.1676 28.4332C19.244 28.4497 19.3187 28.4732 19.3908 28.5034C20.328 28.895 21.1199 29.0909 21.7665 29.0909C23.9402 29.0909 25.9133 28.2442 27.669 26.5509C28.3546 25.9035 28.9064 25.2063 29.3244 24.4924C29.5083 24.177 29.2742 23.7786 28.9064 23.7786C28.2041 23.7786 27.5185 23.7786 26.8163 23.7786C26.6658 23.7786 26.5153 23.845 26.4317 23.9778C26.2979 24.1604 26.1307 24.3596 25.9635 24.5422C24.9268 25.6213 23.7396 26.1525 22.3685 26.1525C21.4823 26.1525 20.7465 25.9035 20.1613 25.4055C19.7433 25.0403 19.459 24.6086 19.2918 24.1106C19.2249 23.9114 19.041 23.7786 18.8403 23.7786C17.9876 23.7786 17.1348 23.7786 16.282 23.7786C16.0479 23.7786 15.864 23.928 15.8138 24.1604C15.5052 25.608 15.0442 27.7516 14.4307 30.5913C14.3792 30.8298 14.1683 31 13.9244 31C12.9044 31 12.1519 30.0703 12.3526 29.0909C13.3224 24.5422 14.2922 19.9936 15.2621 15.4616C15.4125 14.7312 16.0647 14.2 16.8338 14.2C17.3259 14.2 17.7248 14.5988 17.7248 15.0909C17.7248 15.154 17.7181 15.2169 17.7048 15.2786C17.1851 17.6903 16.7889 19.5442 16.5161 20.8403C16.4492 21.1391 16.6833 21.4213 16.9843 21.4213C17.7033 21.4213 18.4223 21.4213 19.1246 21.4213C19.3085 21.4213 19.4757 21.3217 19.5593 21.1557C19.7767 20.6909 20.0777 20.2592 20.479 19.8608C21.499 18.7818 22.6862 18.2339 24.0238 18.2339C24.9268 18.2339 25.6792 18.483 26.2645 18.981C26.8664 19.4956 27.2176 20.1762 27.2844 20.9897C27.3012 21.2387 27.5185 21.4213 27.7694 21.4213C28.4716 21.4213 29.1572 21.4213 29.8595 21.4213C30.127 21.4213 30.3277 21.2221 30.3444 20.9565C30.3444 20.9067 30.3444 20.8403 30.3444 20.7905C30.3444 19.1968 29.8093 17.8687 28.7392 16.8395C27.669 15.8102 26.3146 15.2956 24.676 15.2956C23.9401 15.2868 22.8974 15.5546 21.5479 16.0989C21.2283 16.2278 20.8646 16.0732 20.7357 15.7535C20.6888 15.6372 20.678 15.5094 20.7047 15.3869C20.856 14.694 21.4696 14.2 22.1788 14.2C25.5026 14.2 28.8264 14.2 32.1502 14.2Z" fill="white"/>
</mask>
<g mask="url(#mask0_420_7680)">
<path d="M32.1502 14.2C33.1702 14.2 33.9227 15.1296 33.722 16.109C32.7522 20.6577 31.7824 25.2063 30.8126 29.7383C30.6621 30.4687 30.01 31 29.2408 31C25.8019 31 22.3629 31 18.924 31C18.2012 31 17.6152 30.414 17.6152 29.6912C17.6152 29.5982 17.6251 29.5055 17.6448 29.4146C17.7943 28.7231 18.4761 28.2837 19.1676 28.4332C19.244 28.4497 19.3187 28.4732 19.3908 28.5034C20.328 28.895 21.1199 29.0909 21.7665 29.0909C23.9402 29.0909 25.9133 28.2442 27.669 26.5509C28.3546 25.9035 28.9064 25.2063 29.3244 24.4924C29.5083 24.177 29.2742 23.7786 28.9064 23.7786C28.2041 23.7786 27.5185 23.7786 26.8163 23.7786C26.6658 23.7786 26.5153 23.845 26.4317 23.9778C26.2979 24.1604 26.1307 24.3596 25.9635 24.5422C24.9268 25.6213 23.7396 26.1525 22.3685 26.1525C21.4823 26.1525 20.7465 25.9035 20.1613 25.4055C19.7433 25.0403 19.459 24.6086 19.2918 24.1106C19.2249 23.9114 19.041 23.7786 18.8403 23.7786C17.9876 23.7786 17.1348 23.7786 16.282 23.7786C16.0479 23.7786 15.864 23.928 15.8138 24.1604C15.5052 25.608 15.0442 27.7516 14.4307 30.5913C14.3792 30.8298 14.1683 31 13.9244 31C12.9044 31 12.1519 30.0703 12.3526 29.0909C13.3224 24.5422 14.2922 19.9936 15.2621 15.4616C15.4125 14.7312 16.0647 14.2 16.8338 14.2C17.3259 14.2 17.7248 14.5988 17.7248 15.0909C17.7248 15.154 17.7181 15.2169 17.7048 15.2786C17.1851 17.6903 16.7889 19.5442 16.5161 20.8403C16.4492 21.1391 16.6833 21.4213 16.9843 21.4213C17.7033 21.4213 18.4223 21.4213 19.1246 21.4213C19.3085 21.4213 19.4757 21.3217 19.5593 21.1557C19.7767 20.6909 20.0777 20.2592 20.479 19.8608C21.499 18.7818 22.6862 18.2339 24.0238 18.2339C24.9268 18.2339 25.6792 18.483 26.2645 18.981C26.8664 19.4956 27.2176 20.1762 27.2844 20.9897C27.3012 21.2387 27.5185 21.4213 27.7694 21.4213C28.4716 21.4213 29.1572 21.4213 29.8595 21.4213C30.127 21.4213 30.3277 21.2221 30.3444 20.9565C30.3444 20.9067 30.3444 20.8403 30.3444 20.7905C30.3444 19.1968 29.8093 17.8687 28.7392 16.8395C27.669 15.8102 26.3146 15.2956 24.676 15.2956C23.9401 15.2868 22.8974 15.5546 21.5479 16.0989C21.2283 16.2278 20.8646 16.0732 20.7357 15.7535C20.6888 15.6372 20.678 15.5094 20.7047 15.3869C20.856 14.694 21.4696 14.2 22.1788 14.2C25.5026 14.2 28.8264 14.2 32.1502 14.2Z" fill="white"/>
</g>
</g>
<defs>
<clipPath id="clip0_420_7680">
<rect width="22" height="17" fill="white" transform="translate(12 14)"/>
</clipPath>
</defs>
</svg>
