<svg width="45" height="45" viewBox="0 0 45 45" fill="none" xmlns="http://www.w3.org/2000/svg">
<path d="M0 22.5C0 10.0736 10.0736 0 22.5 0V0C34.9264 0 45 10.0736 45 22.5V22.5C45 34.9264 34.9264 45 22.5 45V45C10.0736 45 0 34.9264 0 22.5V22.5Z" fill="#1348BA"/>
<path d="M22.4264 10.0036C15.7615 10.12 10.2516 14.7778 10.0083 21.1773C9.76857 27.5804 14.7591 32.9691 21.1552 33.2091C24.4096 33.3327 27.4024 32.1001 29.5926 30.013C31.6992 28.0022 31.612 24.4643 29.9376 26.0678C28.0961 27.8313 25.521 28.8858 22.7134 28.784C17.3597 28.5913 13.1827 24.2643 13.3825 19.1193C13.5677 14.3451 18.2967 10.5672 22.5281 10.3382L22.6371 10C22.5681 10.0036 22.4991 10.0036 22.4264 10.0036Z" fill="url(#paint0_linear_420_7679)"/>
<path d="M23.7934 10.3302C29.2641 10.6498 33.7671 15.1268 17.8462 19.6038C21.9021 20.3706 24.8979 22.1991 24.8979 22.1991C38.5285 15.5386 30.775 9.97876 23.062 10.0001L22.9512 10.3302C23.2356 10.3125 23.5164 10.3125 23.7934 10.3302Z" fill="#FFCB05"/>
<path d="M16.5928 12.8577C18.3476 11.3909 20.5261 10.4637 22.5948 10.3497C22.886 10.3345 23.1735 10.3345 23.4571 10.3535C26.2029 10.5207 28.7103 11.7557 28.6347 13.5417L30.0076 11.9191C28.1733 10.6993 25.4389 9.99246 22.7083 10.0001H22.4889C19.9171 10.0457 17.5118 10.7411 15.4922 11.9419L16.5928 12.8577Z" fill="url(#paint1_linear_420_7679)"/>
<path d="M29.8517 28.102C29.848 28.0382 29.6241 26.4736 29.6241 26.4736C29.0682 22.7554 29.8442 19.1535 35.5 18.857C27.2961 14.8912 21.8418 18.6882 17.8462 19.5774C21.4837 20.0314 29.1503 24.1662 29.8517 28.102Z" fill="url(#paint2_linear_420_7679)"/>
<path d="M31.8721 20.2314C28.3887 21.6502 28.7456 25.5792 29.0801 27.8837C29.1471 28.0711 29.4965 29.5046 28.6898 31.0005C27.6897 32.6838 26.0689 33.9555 22.946 34.7788C30.9501 35.1464 40.1104 27.5456 31.8721 20.2314Z" fill="url(#paint3_linear_420_7679)"/>
<defs>
<linearGradient id="paint0_linear_420_7679" x1="16.8172" y1="20.3094" x2="27.2607" y2="22.844" gradientUnits="userSpaceOnUse">
<stop stop-color="#ED1C24"/>
<stop offset="1" stop-color="#8B0304"/>
</linearGradient>
<linearGradient id="paint1_linear_420_7679" x1="16.9904" y1="11.7692" x2="28.3602" y2="11.7692" gradientUnits="userSpaceOnUse">
<stop stop-color="#ED1C24"/>
<stop offset="1" stop-color="#FFCB05"/>
</linearGradient>
<linearGradient id="paint2_linear_420_7679" x1="26.6735" y1="16.9969" x2="26.6735" y2="21.0125" gradientUnits="userSpaceOnUse">
<stop stop-color="#E39717"/>
<stop offset="0.1236" stop-color="#E8A116"/>
<stop offset="0.4344" stop-color="#F4B710"/>
<stop offset="0.7321" stop-color="#FCC509"/>
<stop offset="1" stop-color="#FFCB05"/>
</linearGradient>
<linearGradient id="paint3_linear_420_7679" x1="27.079" y1="23.7794" x2="29.3555" y2="28.7211" gradientUnits="userSpaceOnUse">
<stop stop-color="#E39717"/>
<stop offset="0.1013" stop-color="#E8A116"/>
<stop offset="0.3561" stop-color="#F4B710"/>
<stop offset="0.6" stop-color="#FCC509"/>
<stop offset="0.8196" stop-color="#FFCB05"/>
<stop offset="1" stop-color="#FFCB05"/>
</linearGradient>
</defs>
</svg>
