<svg width="45" height="45" viewBox="0 0 45 45" fill="none" xmlns="http://www.w3.org/2000/svg">
<path d="M0 22.5C0 10.0736 10.0736 0 22.5 0V0C34.9264 0 45 10.0736 45 22.5V22.5C45 34.9264 34.9264 45 22.5 45V45C10.0736 45 0 34.9264 0 22.5V22.5Z" fill="#E70000"/>
<path fill-rule="evenodd" clip-rule="evenodd" d="M30.4832 13.4162C25.6665 16.4697 23.3059 22.8421 23.3059 22.8421C20.2026 18.1106 13.02 19.2098 13.02 19.2098C24.0804 20.9676 23.2687 29.8677 23.2687 29.8677C24.2024 24.9663 27.6982 19.1567 28.5469 17.9938C33.0454 11.9559 38 11 38 11C35.9685 11.9283 34.1029 13.1841 32.4778 14.7173C33.0269 15.2377 33.478 15.8529 33.8093 16.5334C36.1539 21.1959 33.0082 27.6852 25.5869 31.5033C19.0302 34.8913 11.1103 34.0682 8.77086 29.3792C6.43147 24.6901 9.50292 18.5035 16.8129 14.5633C21.5871 11.9983 26.9396 11.7116 30.4832 13.4162ZM20.7384 24.6689C20.7384 24.6689 14.0332 23.5218 14.0226 26.1292C14.0226 27.2391 15.0835 28.6304 18.7332 29.2039C19.3591 29.3048 21.5553 29.6022 22.977 28.6729C22.977 28.6729 22.1335 30.5475 18.0276 30.2341C17.3168 30.197 13.1208 29.8571 11.6619 27.0054C11.2694 26.2301 11.227 24.0741 14.3143 23.5643C15.9535 23.2882 19.0515 23.4581 20.7118 24.6795" fill="white"/>
</svg>
