<svg width="45" height="45" viewBox="0 0 45 45" fill="none" xmlns="http://www.w3.org/2000/svg">
<path d="M0 22.5C0 10.0736 10.0736 0 22.5 0V0C34.9264 0 45 10.0736 45 22.5V22.5C45 34.9264 34.9264 45 22.5 45V45C10.0736 45 0 34.9264 0 22.5V22.5Z" fill="#F5F5F5"/>
<path fill-rule="evenodd" clip-rule="evenodd" d="M27.8645 20.8205C28.7238 20.8205 29.4195 20.1244 29.4195 19.2651C29.4195 18.4058 28.7238 17.7097 27.8645 17.7097H24.5151H22.9602C22.1005 17.7097 21.4048 18.4058 21.4048 19.2651V20.8205V25.2711C21.4048 28.1558 23.7515 30.503 26.6367 30.503C27.4963 30.503 28.192 29.8077 28.192 28.948C28.192 28.0887 27.4963 27.3926 26.6367 27.3926C25.4667 27.3926 24.5151 26.4415 24.5151 25.2711V20.8205H27.8645Z" fill="#29D9C2"/>
<path fill-rule="evenodd" clip-rule="evenodd" d="M22.9597 13.0002C22.1005 13.0002 21.4048 13.6955 21.4048 14.5552V17.71H18.0554C17.1961 17.71 16.5 18.4061 16.5 19.265C16.5 20.1242 17.1961 20.8204 18.0554 20.8204H21.4048V19.265C21.4048 18.4061 22.1005 17.7096 22.9602 17.7096H24.5151V14.5552C24.5151 13.6955 23.819 13.0002 22.9597 13.0002" fill="#FFD100"/>
<path fill-rule="evenodd" clip-rule="evenodd" d="M24.5151 17.7095V17.7095H22.9602C22.1005 17.7095 21.4048 18.4056 21.4048 19.2649V20.8202H22.9598C23.819 20.8202 24.5151 20.1241 24.5151 19.2649V17.7095Z" fill="#78B500"/>
</svg>
