<svg width="45" height="45" viewBox="0 0 45 45" fill="none" xmlns="http://www.w3.org/2000/svg">
<path d="M0 22.1647C0 9.92346 9.92346 0 22.1647 0H22.7012C34.9424 0 44.8658 9.92346 44.8658 22.1647V22.1647C44.8658 34.4059 34.9424 44.3293 22.7011 44.3293H22.1647C9.92345 44.3293 0 34.4059 0 22.1647V22.1647Z" fill="#F5F5F5"/>
<path d="M13.6385 15.9478H15.8688C15.8688 16.0042 15.8688 16.0607 15.8688 16.1453C15.8688 16.7381 15.6712 17.2463 15.3042 17.6414C14.9372 18.0366 14.429 18.2342 13.8361 18.2342C13.2433 18.2342 12.7351 18.0366 12.3399 17.6132C11.9446 17.218 11.7188 16.7099 11.7188 16.1171C11.7188 15.5243 11.9164 15.0162 12.3116 14.621C12.7069 14.2258 13.215 14 13.8079 14C14.7113 14 15.4171 14.4517 15.7277 15.1856L15.3042 15.3267C15.0219 14.7622 14.4855 14.4517 13.8361 14.4517C13.3844 14.4517 12.9892 14.621 12.6786 14.9315C12.3681 15.242 12.2269 15.6372 12.2269 16.1171C12.2269 16.597 12.3963 16.964 12.7069 17.3027C13.0174 17.6132 13.4127 17.7826 13.8644 17.7826C14.2879 17.7826 14.6266 17.6414 14.909 17.3874C15.1913 17.1333 15.3607 16.7946 15.4171 16.3712H13.6385V15.9478Z" fill="#005CB9"/>
<path d="M19.4542 15.1572L19.426 15.6089C19.3977 15.6089 19.3413 15.6089 19.2566 15.6089C18.4943 15.6089 18.0709 16.1734 18.0709 17.0203V18.1777H17.6191V15.1855H18.0426V15.9194C18.3249 15.4113 18.7202 15.1572 19.2284 15.1572C19.3413 15.1572 19.3977 15.1572 19.4542 15.1572Z" fill="#005CB9"/>
<path d="M23.605 15.1855V18.1777H23.1533V17.6979C22.8992 18.0648 22.5322 18.2624 22.024 18.2624C21.657 18.2624 21.3747 18.1495 21.1488 17.9237C20.923 17.6979 20.8101 17.3874 20.8101 16.9922V15.1855H21.2618V16.8792C21.2618 17.4438 21.6006 17.8108 22.0805 17.8108C22.7016 17.8108 23.1251 17.3874 23.1251 16.6252V15.1855H23.605Z" fill="#005CB9"/>
<path d="M28.2064 15.5525C28.4888 15.8348 28.6582 16.23 28.6582 16.6816C28.6582 17.1333 28.517 17.5285 28.2064 17.8107C27.9241 18.093 27.5571 18.2624 27.1619 18.2624C26.6537 18.2624 26.2584 18.093 25.9761 17.6978V19.1939H25.5244V15.1855H25.9761V15.6654C26.2584 15.2984 26.6537 15.1008 27.1619 15.1008C27.5571 15.1008 27.8959 15.242 28.2064 15.5525ZM27.8677 17.5285C28.0935 17.3026 28.1782 17.0204 28.1782 16.6816C28.1782 16.3429 28.0653 16.0606 27.8677 15.8348C27.67 15.6089 27.3877 15.5243 27.0772 15.5243C26.7948 15.5243 26.5125 15.6372 26.2867 15.863C26.0608 16.0888 25.9479 16.3429 25.9479 16.7098C25.9479 17.0486 26.0608 17.3309 26.2867 17.5567C26.5125 17.7825 26.7666 17.8672 27.0772 17.8672C27.3877 17.839 27.6418 17.7261 27.8677 17.5285Z" fill="#005CB9"/>
<path d="M32.6951 15.5525C33.0057 15.8348 33.1468 16.2017 33.1468 16.6816C33.1468 17.1333 33.0057 17.5002 32.6951 17.8107C32.3846 18.1213 32.0176 18.2624 31.5658 18.2624C31.1141 18.2624 30.7471 18.1213 30.4366 17.8107C30.126 17.5002 29.9849 17.1333 29.9849 16.6816C29.9849 16.23 30.126 15.863 30.4366 15.5525C30.7471 15.242 31.1141 15.1008 31.5658 15.1008C32.0176 15.1008 32.3846 15.242 32.6951 15.5525ZM32.3563 17.5002C32.5822 17.2744 32.6951 16.9921 32.6951 16.6534C32.6951 16.3146 32.5822 16.0324 32.3563 15.8348C32.1305 15.6089 31.8764 15.496 31.5658 15.496C31.2553 15.496 30.973 15.6089 30.7754 15.8348C30.5495 16.0606 30.4366 16.3146 30.4366 16.6534C30.4366 16.9921 30.5495 17.2744 30.7754 17.5002C31.0012 17.7261 31.2553 17.839 31.5658 17.839C31.8764 17.839 32.1305 17.7261 32.3563 17.5002Z" fill="#005CB9"/>
<path d="M14.3987 24.1161L20.6396 30.3293L22.8704 28.1004L16.6296 21.8872L14.3987 24.1161Z" fill="#003764"/>
<path d="M16.0648 21.3301C15.4435 20.7171 14.4552 20.7171 13.8339 21.3301L7 28.1005L9.2309 30.3294L14.9352 24.6456C16.1777 23.4197 18.1827 23.4197 19.397 24.6456L16.0648 21.3301Z" fill="#005CB9"/>
<path d="M30.4663 27.0974L24.1972 20.8843L21.9663 23.0853L28.2354 29.2985L30.4663 27.0974Z" fill="#A32035"/>
<path d="M28.8009 29.8558C29.4222 30.4687 30.4105 30.4687 31.0318 29.8558L37.8657 23.0854L35.6348 20.8564L29.9305 26.5402C28.6879 27.7661 26.683 27.7661 25.4404 26.5402L28.8009 29.8558Z" fill="#E1251B"/>
</svg>
