<svg width="45" height="45" viewBox="0 0 45 45" fill="none" xmlns="http://www.w3.org/2000/svg">
<path d="M0 22.5C0 10.0736 10.0736 0 22.5 0V0C34.9264 0 45 10.0736 45 22.5V22.5C45 34.9264 34.9264 45 22.5 45V45C10.0736 45 0 34.9264 0 22.5V22.5Z" fill="#FD9700"/>
<mask id="mask0_420_7678" style="mask-type:alpha" maskUnits="userSpaceOnUse" x="8" y="27" width="30" height="8">
<path d="M8 27.9888H37.9871V34.2494H8V27.9888Z" fill="white"/>
</mask>
<g mask="url(#mask0_420_7678)">
<path d="M19.7782 28.0006C18.7431 27.9497 17.9191 28.6007 17.9191 29.8252V32.2549C17.9191 32.3768 18.0325 32.3557 18.0616 32.3557H18.4742C18.5643 32.3557 18.6107 32.3441 18.6107 32.2477V29.8086C18.6107 29.0358 19.0729 28.6397 19.8092 28.6596C19.8689 28.6596 19.9432 28.6338 19.9432 28.5343V28.146C19.9432 28.0371 19.8743 27.9982 19.7782 28.0006ZM37.8196 28.0006C36.786 27.9497 35.9631 28.6007 35.9631 29.8252C35.9631 29.8252 35.9618 32.1333 35.9618 32.2549C35.9618 32.3768 36.0761 32.3557 36.1058 32.3557H36.5165C36.6072 32.3557 36.6542 32.3441 36.6542 32.2477V29.8086C36.6542 29.0358 37.1143 28.6397 37.8518 28.6596C37.9113 28.6596 37.9871 28.6338 37.9871 28.5343V28.146C37.9871 28.0371 37.9148 27.9982 37.8196 28.0006ZM34.6715 28.0977H34.2553C34.1649 28.0977 34.1175 28.1067 34.1175 28.2043V32.2079V32.2577C34.1175 32.3789 34.233 32.3557 34.2626 32.3557H34.6788C34.7679 32.3557 34.8162 32.3448 34.8162 32.2498V32.2079V28.1959C34.8162 28.0727 34.7013 28.0977 34.6715 28.0977ZM27.656 29.449C27.7164 29.4246 27.7422 29.3607 27.7055 29.2954C27.4026 28.7514 26.6613 28.4529 25.9505 28.8043C25.1045 29.2236 25.1303 30.1405 25.2001 30.3597C25.2298 30.4523 25.3184 30.4527 25.3697 30.4327C25.422 30.4109 27.5008 29.5165 27.656 29.449ZM26.5821 27.9923C27.5139 27.9923 28.3637 28.5452 28.6216 29.6153C28.6446 29.7018 28.5914 29.7574 28.5138 29.7884C28.5107 29.7891 26.0234 30.8616 25.5256 31.0745C25.4596 31.1011 25.435 31.1648 25.4837 31.2505C25.6536 31.5404 26.1811 31.8138 26.6247 31.8138C27.1448 31.8138 27.5963 31.5519 27.8737 31.1001C27.8737 31.1001 27.9102 31.0315 27.9944 31.0315H28.4578C28.5656 31.0315 28.5965 31.1317 28.5762 31.1819C28.2256 31.9945 27.5463 32.4502 26.6247 32.4502C25.4077 32.4502 24.4341 31.4761 24.4341 30.2304C24.4341 28.8463 25.4077 27.9923 26.5821 27.9923ZM31.2179 27.9888C30.2056 27.9888 29.4479 28.6932 29.4479 29.7678V32.2079C29.4479 32.3194 29.463 32.3559 29.6007 32.3559H29.9827C30.1007 32.3559 30.1415 32.3559 30.1415 32.2401V29.7432C30.1415 29.1056 30.5592 28.6436 31.2179 28.6436C31.8691 28.6436 32.2875 29.1056 32.2875 29.7432V32.2401C32.2875 32.3362 32.3224 32.3557 32.4228 32.3557H32.8225C32.9715 32.3557 32.9806 32.3228 32.9806 32.2008V29.7678C32.9806 28.6932 32.2316 27.9888 31.2179 27.9888ZM14.9564 31.7857C15.7471 31.7857 16.3891 31.092 16.3891 30.24C16.3891 29.3707 15.7471 28.6596 14.9564 28.6596C14.175 28.6596 13.5321 29.3707 13.5321 30.24C13.5321 31.092 14.175 31.7857 14.9564 31.7857ZM14.9564 27.9888C16.1666 27.9888 17.0882 28.9983 17.0882 30.24C17.0882 31.462 16.1666 32.4634 14.9564 32.4634C13.7575 32.4634 12.8261 31.462 12.8261 30.24C12.8261 28.9983 13.7575 27.9888 14.9564 27.9888ZM10.1318 31.8183C10.9135 31.8183 11.5544 31.1228 11.5544 30.2304C11.5544 29.3377 10.9135 28.6436 10.1318 28.6436C9.35729 28.6436 8.70037 29.3453 8.70037 30.2304C8.70037 31.1169 9.35042 31.8183 10.1318 31.8183ZM10.1318 27.9888C11.299 27.9888 12.2536 28.9484 12.2536 30.2304C12.2536 31.5056 11.3156 32.4634 10.1412 32.4634C9.64874 32.4634 9.18388 32.2699 8.85416 31.9396C8.76079 31.8451 8.67486 31.8921 8.67486 31.98V34.0734C8.67486 34.2494 8.66014 34.2494 8.4985 34.2494H8.17243C8.01724 34.2494 8 34.2494 8 34.0734V30.2304C8 28.9739 8.92972 27.9888 10.1318 27.9888ZM23.969 28.0977C24.0314 28.0977 24.0869 28.1352 24.0595 28.2189C23.9548 28.5246 24.0242 28.322 22.5953 32.2714C22.5953 32.2714 22.565 32.3559 22.5072 32.3559H22.1994H22.1812H21.8725C21.8146 32.3559 21.7856 32.2714 21.7856 32.2714C21.7856 32.2714 20.359 28.3275 20.3207 28.2189C20.2921 28.1352 20.3485 28.0977 20.413 28.0977H20.9561C20.9561 28.0977 21.0162 28.0895 21.0378 28.1522C21.0639 28.2339 22.1112 31.2069 22.1458 31.3043C22.1524 31.328 22.1671 31.3401 22.1812 31.3425C22.1851 31.345 22.19 31.3425 22.19 31.3425C22.1932 31.3425 22.1967 31.345 22.1986 31.3425C22.2136 31.3401 22.2262 31.328 22.2347 31.3043C22.2684 31.2069 23.3156 28.2339 23.3447 28.1522C23.3641 28.0895 23.4235 28.0977 23.4235 28.0977H23.969Z" fill="white"/>
</g>
<mask id="mask1_420_7678" style="mask-type:alpha" maskUnits="userSpaceOnUse" x="10" y="11" width="26" height="15">
<path d="M10.031 11H35.8108V25.3441H10.031V11Z" fill="white"/>
</mask>
<g mask="url(#mask1_420_7678)">
<path d="M22.9245 16.742C18.1925 16.742 14.3526 20.5902 14.3365 25.3438L10.031 25.3441C10.031 25.247 10.0872 25.1616 10.1689 25.1206H10.165C10.1856 25.1114 10.1967 25.1074 10.2085 25.1043L12.3838 23.7655L10.1774 22.1656C10.1078 22.1221 10.0611 22.0442 10.0611 21.9543C10.0611 21.8249 10.1594 21.7186 10.2836 21.705V21.7012L13.0063 21.4244L10.6253 18.4915C10.5756 18.4456 10.5469 18.3809 10.5469 18.3093C10.5469 18.1725 10.6567 18.0608 10.7935 18.0608C10.8013 18.0608 10.8085 18.0618 10.817 18.0631L10.8193 18.0608L14.5874 18.6748L13.4712 16.1793C13.4591 16.148 13.4496 16.1124 13.4496 16.0749C13.4496 15.933 13.5653 15.8172 13.7057 15.8172C13.7377 15.8172 13.7671 15.8237 13.7959 15.8345L13.7961 15.8335L16.2913 16.9593L15.6915 13.2371C15.6863 13.2163 15.6836 13.1951 15.6836 13.1739C15.6836 13.0314 15.7983 12.9159 15.9402 12.9159C15.9953 12.9159 16.0456 12.9339 16.0874 12.9614L19.0271 15.3732L19.3011 12.6706C19.3011 12.6561 19.2989 12.643 19.2989 12.6292C19.2989 12.4926 19.4087 12.3836 19.5442 12.3836C19.6419 12.3836 19.7248 12.4418 19.7636 12.5265L19.765 12.526L21.3578 14.7441L22.6998 11.1922C22.7234 11.0819 22.8207 11 22.9359 11C23.0528 11 23.1493 11.0819 23.1731 11.1922L24.5169 14.7439L26.1106 12.5218C26.1483 12.4401 26.233 12.3836 26.3283 12.3836C26.4646 12.3836 26.5731 12.4926 26.5731 12.6292L26.5697 12.6597H26.5725L26.8452 15.3732L29.7503 12.9932C29.762 12.9806 29.7752 12.969 29.7904 12.9596L29.7929 12.9572L29.8582 12.9269L29.9315 12.9159C30.0728 12.9159 30.1886 13.0314 30.1886 13.1739C30.1886 13.1922 30.186 13.2097 30.1836 13.228H30.1847L29.5822 16.9586L32.0821 15.8296C32.1109 15.8237 32.1392 15.8172 32.1658 15.8172C32.3089 15.8172 32.4229 15.933 32.4229 16.0749C32.4229 16.108 32.4158 16.1389 32.405 16.1677L32.4062 16.1704L31.287 18.6734L35.0604 18.0581C35.0687 18.0618 35.0732 18.0608 35.079 18.0608C35.2156 18.0608 35.327 18.1725 35.327 18.3093C35.327 18.3796 35.2973 18.4423 35.2512 18.4873L32.8682 21.4244L35.591 21.7012C35.7163 21.7215 35.8108 21.8269 35.8108 21.9543C35.8108 22.0402 35.7679 22.1169 35.7023 22.1618L35.7001 22.1644L33.4907 23.7655L35.6541 25.111L35.6589 25.1114L35.6638 25.1137C35.7507 25.155 35.8108 25.2419 35.8108 25.3441L31.5151 25.3435C31.4984 20.5899 27.6589 16.742 22.9245 16.742Z" fill="white"/>
</g>
</svg>
