<svg width="45" height="45" viewBox="0 0 45 45" fill="none" xmlns="http://www.w3.org/2000/svg">
<path d="M0 22.5C0 10.0736 10.0736 0 22.5 0V0C34.9264 0 45 10.0736 45 22.5V22.5C45 34.9264 34.9264 45 22.5 45V45C10.0736 45 0 34.9264 0 22.5V22.5Z" fill="#008CFF"/>
<path fill-rule="evenodd" clip-rule="evenodd" d="M22.7462 13.375L28.618 18.9502L25.6554 21.7673L22.7462 19.011L15.9285 25.4852L22.7462 31.9613L32.5331 22.6691L35.5 25.4852L22.7462 37.6L10 25.4852L22.7462 13.375ZM22.7531 7L35.5 19.1157L22.7531 31.225L16.8756 25.6427L19.8451 22.8301L22.7531 25.5897L29.5716 19.1157L22.7531 12.6348L12.9623 21.9301L10 19.1157L22.7531 7Z" fill="white"/>
</svg>
