<svg width="40" height="40" viewBox="0 0 40 40" fill="none" xmlns="http://www.w3.org/2000/svg">
<rect width="40" height="40" rx="20" fill="#C5ECBF"/>
<path d="M26.5 19.85C28.7361 19.85 30.6205 20.5735 30.7436 21.8644L30.75 22L30.7508 24.7848C30.7509 24.7899 30.751 24.7949 30.751 24.8L30.75 24.813V27.601C30.7482 28.9753 28.8121 29.75 26.5 29.75C24.2649 29.75 22.3813 29.0261 22.2566 27.7355L22.25 27.6V21.999C22.2518 20.6248 24.1885 19.85 26.5 19.85ZM23.7487 26.495L23.75 27.599C23.75 27.587 23.9055 27.7341 24.3041 27.8935C24.8617 28.1166 25.6496 28.25 26.5 28.25C27.3504 28.25 28.1383 28.1166 28.6959 27.8935C29.0502 27.7518 29.2125 27.6199 29.2441 27.6014L29.25 27.6L29.2503 26.4962C28.5043 26.7934 27.5406 26.95 26.501 26.95C25.46 26.95 24.4951 26.793 23.7487 26.495ZM23.7487 23.695L23.7504 24.7707C23.7508 24.7804 23.751 24.7902 23.751 24.8C23.751 24.7874 23.9062 24.9341 24.3047 25.0935C24.8624 25.3166 25.6506 25.45 26.501 25.45C27.3514 25.45 28.1396 25.3166 28.6973 25.0935C29.0811 24.94 29.2392 24.7982 29.2504 24.7992L29.2503 23.696C28.5045 23.9934 27.5408 24.15 26.501 24.15C25.46 24.15 24.4951 23.993 23.7487 23.695ZM27.1 10.25C28.5079 10.25 29.6584 11.3463 29.7448 12.7323L29.75 12.9V18C29.75 18.4142 29.4142 18.75 29 18.75C28.6203 18.75 28.3065 18.4678 28.2568 18.1018L28.25 18V12.9C28.25 12.3066 27.8021 11.8191 27.2254 11.7567L27.1 11.75H11.9C11.3066 11.75 10.8191 12.1979 10.7567 12.7746L10.75 12.9V22C10.75 22.5934 11.1979 23.0809 11.7746 23.1433L11.9 23.15H20C20.4142 23.15 20.75 23.4858 20.75 23.9C20.75 24.2797 20.4678 24.5935 20.1018 24.6432L20 24.65H11.9C10.4921 24.65 9.34163 23.5537 9.25521 22.1677L9.25 22V12.9C9.25 11.4921 10.3463 10.3416 11.7323 10.2552L11.9 10.25H27.1ZM26.5 21.35C25.6501 21.35 24.8621 21.4834 24.3044 21.7065C24.0829 21.7951 23.9364 21.8799 23.8499 21.9355L23.751 21.999C23.751 21.9993 23.751 21.9997 23.751 22C23.751 21.9874 23.9062 22.1341 24.3047 22.2935C24.8624 22.5166 25.6506 22.65 26.501 22.65C27.3514 22.65 28.1393 22.5166 28.6967 22.2936C29.0507 22.1519 29.2125 22.0203 29.2441 22.0015L29.25 22L29.0919 21.8985C29.0024 21.8453 28.8733 21.777 28.6961 21.7062C28.1385 21.4833 27.3503 21.35 26.5 21.35ZM14 20.25C14.4142 20.25 14.75 20.5858 14.75 21C14.75 21.3797 14.4678 21.6935 14.1018 21.7432L14 21.75H13C12.5858 21.75 12.25 21.4142 12.25 21C12.25 20.6203 12.5322 20.3065 12.8982 20.2568L13 20.25H14ZM21.7096 15.441C22.9292 16.6605 22.9292 18.6392 21.7093 19.8603C20.4895 21.0802 18.5108 21.0802 17.2897 19.8603C16.0698 18.6405 16.0698 16.6618 17.2897 15.4407C18.5106 14.2197 20.4897 14.2197 21.7096 15.441ZM18.3506 16.501C17.7162 17.1362 17.7162 18.1655 18.35 18.7994C18.9852 19.4338 20.0145 19.4338 20.6484 18.8C21.2455 18.2022 21.2806 17.2552 20.754 16.6172L20.6487 16.5013L20.5325 16.3956C19.8946 15.8685 18.948 15.9036 18.3506 16.501ZM26 13.25C26.4142 13.25 26.75 13.5858 26.75 14C26.75 14.3797 26.4678 14.6935 26.1018 14.7432L26 14.75H25C24.5858 14.75 24.25 14.4142 24.25 14C24.25 13.6203 24.5322 13.3065 24.8982 13.2568L25 13.25H26Z" fill="#00B800"/>
</svg>
