<svg xmlns="http://www.w3.org/2000/svg" width="120" height="120"><g fill="none" fill-rule="evenodd"><path stroke="#00C800" stroke-width="2" d="M98.203 96.764a3.5 3.5 0 110 7 3.5 3.5 0 110-7z"/><path fill="#00C700" d="M96.913 19.869a3 3 0 110 6 3 3 0 010-6m-73.46 78.166a3 3 0 110 6 3 3 0 010-6"/><path fill="#00E700" d="M49.29 89.965a1.954 1.954 0 110 3.908 1.954 1.954 0 010-3.908m-3.052-70.91a1.954 1.954 0 110 3.908 1.954 1.954 0 010-3.908"/><path stroke="#00E700" stroke-linecap="round" stroke-linejoin="round" stroke-width="2" d="M72.233 22v-7m-3.5 3.5h7m-4.018 78.097v-7m-3.5 3.5h7"/><path stroke="#009B3F" stroke-linecap="round" stroke-linejoin="round" stroke-width="2" d="M18.5 25.384v-7m-3.5 3.5h7"/><path fill="#9A9A9A" d="M97.912 41.703a1.776 1.776 0 11-3.552 0 1.776 1.776 0 013.552 0"/><path fill="#F2F2F2" d="M33.46 40.47c-.502 0-.91.36-1.024.848a10.858 10.858 0 01-7.875 8.056c-.476.122-.824.527-.824 1.018v12.527c0 .49.347.895.824 1.016a10.866 10.866 0 017.956 8.39c.1.506.514.884 1.03.884h53.401c.501 0 .91-.36 1.024-.848a10.856 10.856 0 017.875-8.056c.475-.122.823-.526.823-1.018V50.76c0-.492-.347-.895-.822-1.017a10.86 10.86 0 01-7.956-8.392c-.1-.504-.516-.882-1.03-.882H33.46z"/><path stroke="#9A9A9A" stroke-width="2" d="M20.465 78.19a3.133 3.133 0 01-3.133-3.133V38.621a3.134 3.134 0 013.133-3.134h79.478a3.133 3.133 0 013.132 3.134v36.436a3.132 3.132 0 01-3.132 3.133H20.465z"/><path stroke="#9A9A9A" stroke-width="2" d="M97.784 77.488v3.178c0 1.73-1.229 3.133-2.746 3.133H25.37c-1.517 0-2.746-1.403-2.746-3.133v-2.649M33.46 40.47c-.502 0-.91.36-1.024.848a10.858 10.858 0 01-7.875 8.056c-.476.122-.824.527-.824 1.018v12.527c0 .49.347.895.824 1.016a10.866 10.866 0 017.956 8.39c.1.506.514.884 1.03.884h53.401c.501 0 .91-.36 1.024-.848a10.856 10.856 0 017.875-8.056c.475-.122.823-.526.823-1.018V50.76c0-.492-.347-.895-.822-1.017a10.86 10.86 0 01-7.956-8.392c-.1-.504-.516-.882-1.03-.882H33.46z"/><path fill="#00C800" d="M72.254 57.009c0 6.655-5.395 12.05-12.05 12.05-6.655 0-12.05-5.395-12.05-12.05 0-6.655 5.395-12.05 12.05-12.05 6.655 0 12.05 5.395 12.05 12.05"/><path fill="#FFF" d="M59.166 63.236v1.038h2.075v-1.038a2.081 2.081 0 002.076-2.076v-3.113a2.081 2.081 0 00-2.076-2.076h-2.075v-3.114h2.075v1.038h2.076v-1.038a2.081 2.081 0 00-2.076-2.076v-1.038h-2.075v1.038a2.082 2.082 0 00-2.076 2.076v3.114c0 1.141.934 2.076 2.076 2.076h2.075v3.113h-2.075v-1.038H57.09v1.038c0 1.142.934 2.076 2.076 2.076"/><path fill="#9A9A9A" d="M25.994 41.703a1.776 1.776 0 11-3.552 0 1.776 1.776 0 013.552 0m0 29.3a1.776 1.776 0 11-3.552 0 1.776 1.776 0 013.552 0m71.918 0a1.776 1.776 0 11-3.552 0 1.776 1.776 0 013.552 0"/></g></svg>