<?xml version="1.0" encoding="UTF-8"?>
<svg width="24px" height="24px" viewBox="0 0 24 24" version="1.1" xmlns="http://www.w3.org/2000/svg" xmlns:xlink="http://www.w3.org/1999/xlink">
    <title>Logos/04 entidades/06 TuPlus</title>
    <g id="Logos/04-entidades/06-TuPlus" stroke="none" stroke-width="1" fill="none" fill-rule="evenodd">
        <g id="Logo-TuPlus" transform="translate(5.500000, 3.000000)">
            <path d="M11.3646,7.82046452 C12.2238581,7.82046452 12.9195677,7.12433548 12.9195677,6.26507742 C12.9195677,5.40581935 12.2238581,4.70969032 11.3646,4.70969032 L8.0152129,4.70969032 L6.46024516,4.70969032 C5.60056774,4.70969032 4.90485806,5.40581935 4.90485806,6.26507742 L4.90485806,7.82046452 L4.90485806,12.2710774 C4.90485806,15.1558194 7.25156774,17.5029484 10.136729,17.5029484 C10.9964065,17.5029484 11.6921161,16.8076581 11.6921161,15.9479806 C11.6921161,15.0887226 10.9964065,14.3925935 10.136729,14.3925935 C8.96672903,14.3925935 8.0152129,13.4414968 8.0152129,12.2710774 L8.0152129,7.82046452 L11.3646,7.82046452 Z" id="Fill-1" fill="#29D9C2"></path>
            <path d="M6.4597,0.000125806451 C5.60044194,0.000125806451 4.90473226,0.695416129 4.90473226,1.55509355 L4.90473226,4.7099 L1.55534516,4.7099 C0.696087097,4.7099 -4.19354836e-05,5.40602903 -4.19354836e-05,6.26486774 C-4.19354836e-05,7.12412581 0.696087097,7.82025484 1.55534516,7.82025484 L4.90473226,7.82025484 L4.90473226,6.26486774 C4.90473226,5.40602903 5.60044194,4.70948065 6.46011935,4.70948065 L8.0150871,4.70948065 L8.0150871,1.55509355 C8.0150871,0.695416129 7.31895806,0.000125806451 6.4597,0.000125806451" id="Fill-3" fill="#FFD100"></path>
            <path d="M8.0150871,4.70927097 L8.0150871,4.70927097 L6.46011935,4.70927097 C5.60044194,4.70927097 4.90473226,5.4054 4.90473226,6.26465806 L4.90473226,7.82004516 L6.4597,7.82004516 C7.31895806,7.82004516 8.0150871,7.12391613 8.0150871,6.26465806 L8.0150871,4.70927097 Z" id="Fill-6" fill="#78B500"></path>
        </g>
    </g>
</svg>